# xmcd
#
# Track frame offsets: 
#        150
#        674
#        18996
#        36103
#        54281
#        72123
#        89317
#        108586
#        123085
#        137407
#        158123
#        175368
#        190642
#        206569
#        224461
#        241235
#        256788
#        271176
#        288766
#        300271
#        313299
#
# Disc length: 4434 seconds
#
# Revision: 0
# Processed by: cddbd v1.5.2PL0 Copyright (c) Steve Scherf et al.
# Submitted via: ExactAudioCopy v0.99pb4
#
DISCID=13115015
DTITLE=Various Artist - prevue promo 1077A-1
DYEAR=2001
DGENRE=pop
TTITLE0=blank - data
TTITLE1=Evan And Jaron - Distance, The( Movie "Serendipity")
TTITLE2=Paul McCartney - From A Lover To A Friend
TTITLE3=Prime sth - I'm Stupid (Don't Worry 'Bout Me)
TTITLE4=Dream - In My Dreams
TTITLE5=Sharissa - Any Other Night(Lyric!!)
TTITLE6=Fabolous feat.  Nate Dogg - Can't Deny It(Lyrics!!! - Amended 
TTITLE6=Radio Edit)
TTITLE7=Jaheim feat.  NAS - Just In Case(Remix - no Rap)
TTITLE8=Lil' Mo - Gangsta (Love 4 The Streets)
TTITLE9=P. Diddy and The Bad Boy Family feat.  Busta Rhymes and M.O.P. - B
TTITLE9=ad Boy For Life(Remix)
TTITLE10=Shaquille O'Neal feat.  Common, Black Thought and Joi - In The 
TTITLE10=Sun
TTITLE11=Billy Bob Thornton - Angelina
TTITLE12=Sugar Ray - Answer The Phone(Intro Bridge Edit)
TTITLE13=Basement Jaxx - Where's Your Head At
TTITLE14=Kittie - What I Always Wanted
TTITLE15=Sum 41 - In Too Deep
TTITLE16=Collective Soul - Next Homecoming
TTITLE17=Cold feat.  Aaron Lewis From Staind - Thirteen *(Same Song As
TTITLE17="Bleed" But It Is Labeled "Thirteen")
TTITLE18=Harvey Danger - Authenticity
TTITLE19=Mest - Cadillac
TTITLE20=Puddle Of Mudd - Blurry
EXTD=
EXTT0=
EXTT1=
EXTT2=
EXTT3=
EXTT4=
EXTT5=
EXTT6=
EXTT7=
EXTT8=
EXTT9=
EXTT10=
EXTT11=
EXTT12=
EXTT13=
EXTT14=
EXTT15=
EXTT16=
EXTT17=
EXTT18=
EXTT19=
EXTT20=
PLAYORDER=
